<svg width="50" height="50" viewBox="0 0 50 50" fill="none" xmlns="http://www.w3.org/2000/svg">
<path d="M50 24.9999C50 11.1928 38.8071 -4.11528e-05 25 -4.11528e-05C11.1929 -4.11528e-05 0 11.1928 0 24.9999C0 37.4782 9.14214 47.8207 21.0938 49.6962V32.2265H14.7461V24.9999H21.0938V19.4921C21.0938 13.2265 24.8261 9.76558 30.5366 9.76558C33.2718 9.76558 36.1328 10.2539 36.1328 10.2539V16.4062H32.9804C29.8748 16.4062 28.9062 18.3333 28.9062 20.3103V24.9999H35.8398L34.7314 32.2265H28.9062V49.6962C40.8579 47.8207 50 37.4782 50 24.9999Z" fill="#444444"/>
<path d="M34.7314 32.2266L35.8398 25H28.9062V20.3104C28.9062 18.3334 29.8747 16.4063 32.9804 16.4063H36.1328V10.2539C36.1328 10.2539 33.2718 9.76567 30.5366 9.76567C24.8261 9.76567 21.0937 13.2266 21.0937 19.4922V25H14.7461V32.2266H21.0937V49.6964C22.3665 49.8961 23.6711 50.0001 25 50.0001C26.3289 50.0001 27.6334 49.8961 28.9062 49.6964V32.2266H34.7314Z" fill="#C9C9C3"/>
</svg>
