<svg width="905" height="974" viewBox="0 0 905 974" fill="none" xmlns="http://www.w3.org/2000/svg">
<path opacity="0.4" d="M360.645 399.883L409.691 253.692L492.119 351.491L637.413 180.17L489.432 627.038L360.645 399.883Z" fill="#FCB6C6"/>
<path opacity="0.4" d="M436.174 572.001L519.851 587.729L623.07 627.771L313.388 783.891L320.736 682.702L237.646 644.689L389.171 572.415L431.061 476.041L419.173 451.118L494.571 424.994L454.981 404.697L713.759 424.035L436.174 572.001Z" fill="#505156" stroke="black"/>
<path opacity="0.4" d="M222.218 403.465L580.481 831.852L571.899 728.692L631.813 717.453L544.711 642.008L580.692 584.932L411.71 415.055L400.498 133.563L311.358 268.514L222.218 403.465Z" fill="#C2A9A9"/>
</svg>
