<svg width="58" height="47" viewBox="0 0 58 47" fill="none" xmlns="http://www.w3.org/2000/svg">
<path d="M18.2398 47C40.1267 47 52.0979 28.9161 52.0979 13.2339C52.0979 12.7202 52.0979 12.2089 52.0631 11.6999C54.392 10.02 56.4023 7.93987 58 5.55704C55.8282 6.51677 53.5243 7.14615 51.1653 7.42419C53.6494 5.94107 55.5086 3.60838 56.3969 0.860234C54.061 2.24256 51.5055 3.21676 48.8406 3.74079C47.0465 1.8382 44.6736 0.578351 42.0891 0.156205C39.5047 -0.265941 36.8528 0.173149 34.5438 1.40553C32.2347 2.6379 30.3974 4.59486 29.316 6.97357C28.2345 9.35228 27.9694 12.0201 28.5615 14.5643C23.8305 14.3277 19.2022 13.1016 14.9771 10.9655C10.752 8.82942 7.02458 5.83108 4.0368 2.16516C2.51509 4.7777 2.04902 7.87042 2.73349 10.8136C3.41796 13.7568 5.20149 16.3292 7.72096 18.0071C5.82724 17.9511 3.97481 17.4416 2.32 16.5217C2.32 16.5702 2.32 16.6211 2.32 16.672C2.32075 19.412 3.27181 22.0673 5.01185 24.1876C6.7519 26.308 9.17381 27.7628 11.8668 28.3053C10.1149 28.7818 8.27679 28.8515 6.49368 28.5089C7.25408 30.867 8.73449 32.929 10.7278 34.4067C12.7212 35.8844 15.1278 36.7038 17.6111 36.7503C13.3974 40.053 8.19206 41.8458 2.83272 41.8405C1.88594 41.8386 0.940073 41.7815 0 41.6692C5.44188 45.152 11.7738 46.9993 18.2398 46.9907" fill="#444444"/>
</svg>
